<svg xmlns="http://www.w3.org/2000/svg" viewBox="0 0 100 100" shape-rendering="crispEdges"><rect width="100" height="100" fill="#ffffff"></rect><g fill="#15161a"><rect x="0" y="0" width="4" height="4"></rect><rect x="4" y="0" width="4" height="4"></rect><rect x="8" y="0" width="4" height="4"></rect><rect x="12" y="0" width="4" height="4"></rect><rect x="16" y="0" width="4" height="4"></rect><rect x="20" y="0" width="4" height="4"></rect><rect x="24" y="0" width="4" height="4"></rect><rect x="40" y="0" width="4" height="4"></rect><rect x="56" y="0" width="4" height="4"></rect><rect x="72" y="0" width="4" height="4"></rect><rect x="76" y="0" width="4" height="4"></rect><rect x="80" y="0" width="4" height="4"></rect><rect x="84" y="0" width="4" height="4"></rect><rect x="88" y="0" width="4" height="4"></rect><rect x="92" y="0" width="4" height="4"></rect><rect x="96" y="0" width="4" height="4"></rect><rect x="0" y="4" width="4" height="4"></rect><rect x="24" y="4" width="4" height="4"></rect><rect x="32" y="4" width="4" height="4"></rect><rect x="36" y="4" width="4" height="4"></rect><rect x="44" y="4" width="4" height="4"></rect><rect x="72" y="4" width="4" height="4"></rect><rect x="96" y="4" width="4" height="4"></rect><rect x="0" y="8" width="4" height="4"></rect><rect x="8" y="8" width="4" height="4"></rect><rect x="12" y="8" width="4" height="4"></rect><rect x="16" y="8" width="4" height="4"></rect><rect x="24" y="8" width="4" height="4"></rect><rect x="32" y="8" width="4" height="4"></rect><rect x="36" y="8" width="4" height="4"></rect><rect x="48" y="8" width="4" height="4"></rect><rect x="56" y="8" width="4" height="4"></rect><rect x="72" y="8" width="4" height="4"></rect><rect x="80" y="8" width="4" height="4"></rect><rect x="84" y="8" width="4" height="4"></rect><rect x="88" y="8" width="4" height="4"></rect><rect x="96" y="8" width="4" height="4"></rect><rect x="0" y="12" width="4" height="4"></rect><rect x="8" y="12" width="4" height="4"></rect><rect x="12" y="12" width="4" height="4"></rect><rect x="16" y="12" width="4" height="4"></rect><rect x="24" y="12" width="4" height="4"></rect><rect x="32" y="12" width="4" height="4"></rect><rect x="36" y="12" width="4" height="4"></rect><rect x="60" y="12" width="4" height="4"></rect><rect x="72" y="12" width="4" height="4"></rect><rect x="80" y="12" width="4" height="4"></rect><rect x="84" y="12" width="4" height="4"></rect><rect x="88" y="12" width="4" height="4"></rect><rect x="96" y="12" width="4" height="4"></rect><rect x="0" y="16" width="4" height="4"></rect><rect x="8" y="16" width="4" height="4"></rect><rect x="12" y="16" width="4" height="4"></rect><rect x="16" y="16" width="4" height="4"></rect><rect x="24" y="16" width="4" height="4"></rect><rect x="32" y="16" width="4" height="4"></rect><rect x="40" y="16" width="4" height="4"></rect><rect x="48" y="16" width="4" height="4"></rect><rect x="52" y="16" width="4" height="4"></rect><rect x="56" y="16" width="4" height="4"></rect><rect x="72" y="16" width="4" height="4"></rect><rect x="80" y="16" width="4" height="4"></rect><rect x="84" y="16" width="4" height="4"></rect><rect x="88" y="16" width="4" height="4"></rect><rect x="96" y="16" width="4" height="4"></rect><rect x="0" y="20" width="4" height="4"></rect><rect x="24" y="20" width="4" height="4"></rect><rect x="36" y="20" width="4" height="4"></rect><rect x="48" y="20" width="4" height="4"></rect><rect x="56" y="20" width="4" height="4"></rect><rect x="60" y="20" width="4" height="4"></rect><rect x="64" y="20" width="4" height="4"></rect><rect x="72" y="20" width="4" height="4"></rect><rect x="96" y="20" width="4" height="4"></rect><rect x="0" y="24" width="4" height="4"></rect><rect x="4" y="24" width="4" height="4"></rect><rect x="8" y="24" width="4" height="4"></rect><rect x="12" y="24" width="4" height="4"></rect><rect x="16" y="24" width="4" height="4"></rect><rect x="20" y="24" width="4" height="4"></rect><rect x="24" y="24" width="4" height="4"></rect><rect x="44" y="24" width="4" height="4"></rect><rect x="52" y="24" width="4" height="4"></rect><rect x="60" y="24" width="4" height="4"></rect><rect x="72" y="24" width="4" height="4"></rect><rect x="76" y="24" width="4" height="4"></rect><rect x="80" y="24" width="4" height="4"></rect><rect x="84" y="24" width="4" height="4"></rect><rect x="88" y="24" width="4" height="4"></rect><rect x="92" y="24" width="4" height="4"></rect><rect x="96" y="24" width="4" height="4"></rect><rect x="36" y="28" width="4" height="4"></rect><rect x="48" y="28" width="4" height="4"></rect><rect x="56" y="28" width="4" height="4"></rect><rect x="64" y="28" width="4" height="4"></rect><rect x="8" y="32" width="4" height="4"></rect><rect x="12" y="32" width="4" height="4"></rect><rect x="16" y="32" width="4" height="4"></rect><rect x="20" y="32" width="4" height="4"></rect><rect x="24" y="32" width="4" height="4"></rect><rect x="28" y="32" width="4" height="4"></rect><rect x="32" y="32" width="4" height="4"></rect><rect x="36" y="32" width="4" height="4"></rect><rect x="40" y="32" width="4" height="4"></rect><rect x="44" y="32" width="4" height="4"></rect><rect x="56" y="32" width="4" height="4"></rect><rect x="64" y="32" width="4" height="4"></rect><rect x="68" y="32" width="4" height="4"></rect><rect x="72" y="32" width="4" height="4"></rect><rect x="76" y="32" width="4" height="4"></rect><rect x="84" y="32" width="4" height="4"></rect><rect x="96" y="32" width="4" height="4"></rect><rect x="0" y="36" width="4" height="4"></rect><rect x="4" y="36" width="4" height="4"></rect><rect x="12" y="36" width="4" height="4"></rect><rect x="16" y="36" width="4" height="4"></rect><rect x="28" y="36" width="4" height="4"></rect><rect x="32" y="36" width="4" height="4"></rect><rect x="44" y="36" width="4" height="4"></rect><rect x="48" y="36" width="4" height="4"></rect><rect x="60" y="36" width="4" height="4"></rect><rect x="72" y="36" width="4" height="4"></rect><rect x="84" y="36" width="4" height="4"></rect><rect x="92" y="36" width="4" height="4"></rect><rect x="96" y="36" width="4" height="4"></rect><rect x="0" y="40" width="4" height="4"></rect><rect x="4" y="40" width="4" height="4"></rect><rect x="8" y="40" width="4" height="4"></rect><rect x="16" y="40" width="4" height="4"></rect><rect x="32" y="40" width="4" height="4"></rect><rect x="40" y="40" width="4" height="4"></rect><rect x="48" y="40" width="4" height="4"></rect><rect x="76" y="40" width="4" height="4"></rect><rect x="80" y="40" width="4" height="4"></rect><rect x="84" y="40" width="4" height="4"></rect><rect x="96" y="40" width="4" height="4"></rect><rect x="0" y="44" width="4" height="4"></rect><rect x="20" y="44" width="4" height="4"></rect><rect x="28" y="44" width="4" height="4"></rect><rect x="32" y="44" width="4" height="4"></rect><rect x="68" y="44" width="4" height="4"></rect><rect x="76" y="44" width="4" height="4"></rect><rect x="80" y="44" width="4" height="4"></rect><rect x="84" y="44" width="4" height="4"></rect><rect x="88" y="44" width="4" height="4"></rect><rect x="92" y="44" width="4" height="4"></rect><rect x="96" y="44" width="4" height="4"></rect><rect x="8" y="48" width="4" height="4"></rect><rect x="16" y="48" width="4" height="4"></rect><rect x="36" y="48" width="4" height="4"></rect><rect x="44" y="48" width="4" height="4"></rect><rect x="52" y="48" width="4" height="4"></rect><rect x="56" y="48" width="4" height="4"></rect><rect x="64" y="48" width="4" height="4"></rect><rect x="68" y="48" width="4" height="4"></rect><rect x="80" y="48" width="4" height="4"></rect><rect x="92" y="48" width="4" height="4"></rect><rect x="8" y="52" width="4" height="4"></rect><rect x="16" y="52" width="4" height="4"></rect><rect x="20" y="52" width="4" height="4"></rect><rect x="44" y="52" width="4" height="4"></rect><rect x="52" y="52" width="4" height="4"></rect><rect x="56" y="52" width="4" height="4"></rect><rect x="60" y="52" width="4" height="4"></rect><rect x="64" y="52" width="4" height="4"></rect><rect x="0" y="56" width="4" height="4"></rect><rect x="8" y="56" width="4" height="4"></rect><rect x="32" y="56" width="4" height="4"></rect><rect x="36" y="56" width="4" height="4"></rect><rect x="44" y="56" width="4" height="4"></rect><rect x="48" y="56" width="4" height="4"></rect><rect x="56" y="56" width="4" height="4"></rect><rect x="64" y="56" width="4" height="4"></rect><rect x="68" y="56" width="4" height="4"></rect><rect x="76" y="56" width="4" height="4"></rect><rect x="88" y="56" width="4" height="4"></rect><rect x="92" y="56" width="4" height="4"></rect><rect x="4" y="60" width="4" height="4"></rect><rect x="8" y="60" width="4" height="4"></rect><rect x="12" y="60" width="4" height="4"></rect><rect x="16" y="60" width="4" height="4"></rect><rect x="20" y="60" width="4" height="4"></rect><rect x="28" y="60" width="4" height="4"></rect><rect x="32" y="60" width="4" height="4"></rect><rect x="36" y="60" width="4" height="4"></rect><rect x="40" y="60" width="4" height="4"></rect><rect x="52" y="60" width="4" height="4"></rect><rect x="60" y="60" width="4" height="4"></rect><rect x="64" y="60" width="4" height="4"></rect><rect x="68" y="60" width="4" height="4"></rect><rect x="72" y="60" width="4" height="4"></rect><rect x="76" y="60" width="4" height="4"></rect><rect x="96" y="60" width="4" height="4"></rect><rect x="0" y="64" width="4" height="4"></rect><rect x="4" y="64" width="4" height="4"></rect><rect x="8" y="64" width="4" height="4"></rect><rect x="20" y="64" width="4" height="4"></rect><rect x="28" y="64" width="4" height="4"></rect><rect x="36" y="64" width="4" height="4"></rect><rect x="40" y="64" width="4" height="4"></rect><rect x="56" y="64" width="4" height="4"></rect><rect x="68" y="64" width="4" height="4"></rect><rect x="76" y="64" width="4" height="4"></rect><rect x="80" y="64" width="4" height="4"></rect><rect x="88" y="64" width="4" height="4"></rect><rect x="96" y="64" width="4" height="4"></rect><rect x="32" y="68" width="4" height="4"></rect><rect x="36" y="68" width="4" height="4"></rect><rect x="48" y="68" width="4" height="4"></rect><rect x="52" y="68" width="4" height="4"></rect><rect x="60" y="68" width="4" height="4"></rect><rect x="72" y="68" width="4" height="4"></rect><rect x="76" y="68" width="4" height="4"></rect><rect x="80" y="68" width="4" height="4"></rect><rect x="84" y="68" width="4" height="4"></rect><rect x="92" y="68" width="4" height="4"></rect><rect x="96" y="68" width="4" height="4"></rect><rect x="0" y="72" width="4" height="4"></rect><rect x="4" y="72" width="4" height="4"></rect><rect x="8" y="72" width="4" height="4"></rect><rect x="12" y="72" width="4" height="4"></rect><rect x="16" y="72" width="4" height="4"></rect><rect x="20" y="72" width="4" height="4"></rect><rect x="24" y="72" width="4" height="4"></rect><rect x="40" y="72" width="4" height="4"></rect><rect x="56" y="72" width="4" height="4"></rect><rect x="64" y="72" width="4" height="4"></rect><rect x="72" y="72" width="4" height="4"></rect><rect x="76" y="72" width="4" height="4"></rect><rect x="80" y="72" width="4" height="4"></rect><rect x="88" y="72" width="4" height="4"></rect><rect x="96" y="72" width="4" height="4"></rect><rect x="0" y="76" width="4" height="4"></rect><rect x="24" y="76" width="4" height="4"></rect><rect x="40" y="76" width="4" height="4"></rect><rect x="48" y="76" width="4" height="4"></rect><rect x="52" y="76" width="4" height="4"></rect><rect x="56" y="76" width="4" height="4"></rect><rect x="64" y="76" width="4" height="4"></rect><rect x="68" y="76" width="4" height="4"></rect><rect x="72" y="76" width="4" height="4"></rect><rect x="76" y="76" width="4" height="4"></rect><rect x="84" y="76" width="4" height="4"></rect><rect x="88" y="76" width="4" height="4"></rect><rect x="96" y="76" width="4" height="4"></rect><rect x="0" y="80" width="4" height="4"></rect><rect x="8" y="80" width="4" height="4"></rect><rect x="12" y="80" width="4" height="4"></rect><rect x="16" y="80" width="4" height="4"></rect><rect x="24" y="80" width="4" height="4"></rect><rect x="32" y="80" width="4" height="4"></rect><rect x="36" y="80" width="4" height="4"></rect><rect x="40" y="80" width="4" height="4"></rect><rect x="44" y="80" width="4" height="4"></rect><rect x="48" y="80" width="4" height="4"></rect><rect x="56" y="80" width="4" height="4"></rect><rect x="60" y="80" width="4" height="4"></rect><rect x="68" y="80" width="4" height="4"></rect><rect x="72" y="80" width="4" height="4"></rect><rect x="96" y="80" width="4" height="4"></rect><rect x="0" y="84" width="4" height="4"></rect><rect x="8" y="84" width="4" height="4"></rect><rect x="12" y="84" width="4" height="4"></rect><rect x="16" y="84" width="4" height="4"></rect><rect x="24" y="84" width="4" height="4"></rect><rect x="36" y="84" width="4" height="4"></rect><rect x="40" y="84" width="4" height="4"></rect><rect x="44" y="84" width="4" height="4"></rect><rect x="48" y="84" width="4" height="4"></rect><rect x="68" y="84" width="4" height="4"></rect><rect x="84" y="84" width="4" height="4"></rect><rect x="88" y="84" width="4" height="4"></rect><rect x="0" y="88" width="4" height="4"></rect><rect x="8" y="88" width="4" height="4"></rect><rect x="12" y="88" width="4" height="4"></rect><rect x="16" y="88" width="4" height="4"></rect><rect x="24" y="88" width="4" height="4"></rect><rect x="36" y="88" width="4" height="4"></rect><rect x="44" y="88" width="4" height="4"></rect><rect x="52" y="88" width="4" height="4"></rect><rect x="56" y="88" width="4" height="4"></rect><rect x="64" y="88" width="4" height="4"></rect><rect x="76" y="88" width="4" height="4"></rect><rect x="80" y="88" width="4" height="4"></rect><rect x="84" y="88" width="4" height="4"></rect><rect x="88" y="88" width="4" height="4"></rect><rect x="92" y="88" width="4" height="4"></rect><rect x="96" y="88" width="4" height="4"></rect><rect x="0" y="92" width="4" height="4"></rect><rect x="24" y="92" width="4" height="4"></rect><rect x="32" y="92" width="4" height="4"></rect><rect x="36" y="92" width="4" height="4"></rect><rect x="40" y="92" width="4" height="4"></rect><rect x="48" y="92" width="4" height="4"></rect><rect x="52" y="92" width="4" height="4"></rect><rect x="64" y="92" width="4" height="4"></rect><rect x="72" y="92" width="4" height="4"></rect><rect x="76" y="92" width="4" height="4"></rect><rect x="80" y="92" width="4" height="4"></rect><rect x="84" y="92" width="4" height="4"></rect><rect x="88" y="92" width="4" height="4"></rect><rect x="96" y="92" width="4" height="4"></rect><rect x="0" y="96" width="4" height="4"></rect><rect x="4" y="96" width="4" height="4"></rect><rect x="8" y="96" width="4" height="4"></rect><rect x="12" y="96" width="4" height="4"></rect><rect x="16" y="96" width="4" height="4"></rect><rect x="20" y="96" width="4" height="4"></rect><rect x="24" y="96" width="4" height="4"></rect><rect x="32" y="96" width="4" height="4"></rect><rect x="52" y="96" width="4" height="4"></rect><rect x="56" y="96" width="4" height="4"></rect><rect x="60" y="96" width="4" height="4"></rect><rect x="88" y="96" width="4" height="4"></rect><rect x="92" y="96" width="4" height="4"></rect><rect x="96" y="96" width="4" height="4"></rect></g></svg>